<svg width="83" height="48" viewBox="0 0 83 48" fill="none" xmlns="http://www.w3.org/2000/svg">
<path d="M6.28 25.048L6.038 26.038H8.678L8.436 25.048C8.26 24.3587 8.084 23.6107 7.908 22.804C7.732 21.9973 7.556 21.2347 7.38 20.516H7.292C7.14533 21.2347 6.984 21.9973 6.808 22.804C6.632 23.6107 6.456 24.3587 6.28 25.048ZM0.78 32L5.136 17.7H9.712L14.068 32H10.064L9.36 28.964H5.356L4.652 32H0.78ZM14.0353 32.264C13.654 32.264 13.324 32.2493 13.0453 32.22C12.7813 32.1907 12.5393 32.132 12.3193 32.044L12.9353 28.7C13.0233 28.7147 13.1113 28.7367 13.1993 28.766C13.2873 28.7807 13.3753 28.788 13.4633 28.788C13.654 28.788 13.83 28.7367 13.9913 28.634C14.1527 28.5313 14.314 28.304 14.4753 27.952C14.6367 27.6 14.8127 27.05 15.0033 26.302C15.2527 25.3193 15.48 24.3147 15.6853 23.288C15.9053 22.2613 16.1033 21.264 16.2793 20.296H24.2873V32H20.5033V23.376H19.0953C18.9927 23.948 18.8827 24.5127 18.7653 25.07C18.6627 25.6273 18.5527 26.1627 18.4353 26.676C18.1273 28.084 17.7827 29.1987 17.4013 30.02C17.02 30.8267 16.558 31.406 16.0153 31.758C15.4727 32.0953 14.8127 32.264 14.0353 32.264ZM25.7957 32V20.296H33.9797V23.2H29.5797V24.74H33.3637V27.468H29.5797V29.096H34.1997V32H25.7957ZM35.3176 32V20.296H38.7936V22.672C38.7936 23.1707 38.7643 23.728 38.7056 24.344C38.6469 24.9453 38.5809 25.532 38.5076 26.104C38.4343 26.676 38.3683 27.1747 38.3096 27.6H38.3976L39.6516 24.718L41.8736 20.296H45.6576V32H42.1816V29.646C42.1816 29.1327 42.2109 28.5827 42.2696 27.996C42.3283 27.4093 42.3943 26.83 42.4676 26.258C42.5409 25.6713 42.6069 25.1507 42.6656 24.696H42.5776L41.3236 27.556L39.0136 32H35.3176ZM40.6856 19.328C39.2189 19.328 38.1703 19.0493 37.5396 18.492C36.9236 17.92 36.5936 17.172 36.5496 16.248H39.7176C39.7616 17.0693 40.0843 17.48 40.6856 17.48C41.2869 17.48 41.6096 17.0693 41.6536 16.248H44.8216C44.7776 17.172 44.4476 17.92 43.8316 18.492C43.2156 19.0493 42.1669 19.328 40.6856 19.328ZM47.1813 32V20.296H52.2193C53.0993 20.296 53.9206 20.4207 54.6833 20.67C55.4606 20.9047 56.0839 21.3153 56.5533 21.902C57.0226 22.4887 57.2573 23.3027 57.2573 24.344C57.2573 25.3413 57.0153 26.1553 56.5313 26.786C56.0473 27.402 55.4166 27.8567 54.6393 28.15C53.8766 28.4287 53.0699 28.568 52.2193 28.568H50.9653V32H47.1813ZM50.9653 26.016H52.1093C52.6226 26.016 53.0113 25.8767 53.2753 25.598C53.5539 25.3193 53.6933 24.9747 53.6933 24.564C53.6933 23.684 53.1653 23.244 52.1093 23.244H50.9653V26.016ZM63.2732 32.264C62.0999 32.264 61.0659 32.022 60.1712 31.538C59.2766 31.0393 58.5799 30.3353 58.0812 29.426C57.5826 28.502 57.3332 27.3947 57.3332 26.104C57.3332 24.7987 57.5826 23.6987 58.0812 22.804C58.5799 21.8947 59.2766 21.2053 60.1712 20.736C61.0659 20.2667 62.0999 20.032 63.2732 20.032C64.4319 20.032 65.4512 20.2667 66.3312 20.736C67.2259 21.2053 67.9226 21.8947 68.4212 22.804C68.9199 23.6987 69.1692 24.7987 69.1692 26.104C69.1692 27.3947 68.9199 28.502 68.4212 29.426C67.9226 30.3353 67.2259 31.0393 66.3312 31.538C65.4512 32.022 64.4319 32.264 63.2732 32.264ZM63.2732 29.184C63.9186 29.184 64.4172 28.9053 64.7692 28.348C65.1212 27.7907 65.2972 27.0427 65.2972 26.104C65.2972 25.136 65.1212 24.3953 64.7692 23.882C64.4172 23.3687 63.9186 23.112 63.2732 23.112C62.6132 23.112 62.0999 23.3687 61.7332 23.882C61.3812 24.3953 61.2052 25.136 61.2052 26.104C61.2052 27.0427 61.3812 27.7907 61.7332 28.348C62.0999 28.9053 62.6132 29.184 63.2732 29.184ZM70.0707 32V20.296H73.8547V24.432H77.0227V20.296H80.8067V32H77.0227V27.688H73.8547V32H70.0707Z" fill="#E82C2C"/>
</svg>
